<?xml version="1.0" encoding="utf-8"?><svg xmlns="http://www.w3.org/2000/svg" xmlns:xlink="http://www.w3.org/1999/xlink"><symbol viewBox="0 0 16 16" id="1" xmlns="http://www.w3.org/2000/svg"><path d="M16 6.333c0-1.437-.69-2.782-1.942-3.788-1.228-.986-2.855-1.53-4.582-1.53-1.727 0-3.354.544-4.581 1.53a5.412 5.412 0 00-1.413 1.678 5.72 5.72 0 00-1.842.978C.582 6.051 0 7.187 0 8.402c0 1.108.49 2.16 1.384 2.981l-.088 3.202a.389.389 0 00.652.296l2.281-2.11c.412.078.835.118 1.262.118 1.425 0 2.77-.44 3.795-1.242a8.037 8.037 0 002.07-.221l1.997 1.847a.388.388 0 00.652-.296l-.076-2.756C15.248 9.217 16 7.81 16 6.333zm-10.51 5.78a5.87 5.87 0 01-1.293-.143.388.388 0 00-.349.094l-1.75 1.62.068-2.46a.388.388 0 00-.137-.307C1.222 10.23.777 9.336.777 8.402c0-1.359.933-2.55 2.321-3.195a4.432 4.432 0 00-.145 1.125c0 1.437.69 2.782 1.942 3.788.88.707 1.965 1.186 3.145 1.4a5.64 5.64 0 01-2.55.592zm7.82-2.402a.388.388 0 00-.163.328l.056 2.037-1.475-1.365a.389.389 0 00-.367-.09 7.089 7.089 0 01-1.885.252c-3.169 0-5.747-2.037-5.747-4.54 0-2.504 2.578-4.54 5.747-4.54 3.17 0 5.747 2.036 5.747 4.54 0 1.285-.697 2.516-1.913 3.378z"/><path d="M9.53 5.179a1.263 1.263 0 00.001 2.524c.696 0 1.262-.566 1.262-1.262 0-.696-.566-1.262-1.262-1.262zm0 1.747a.486.486 0 11.002-.971.486.486 0 01-.001.971zm3.301-1.747c-.695 0-1.262.566-1.262 1.262a1.263 1.263 0 002.525 0c0-.696-.567-1.262-1.263-1.262zm0 1.747a.486.486 0 11.001-.971.486.486 0 010 .971zM6.23 5.179c-.697 0-1.263.566-1.263 1.262 0 .696.566 1.262 1.262 1.262.696 0 1.262-.566 1.262-1.262 0-.696-.566-1.262-1.262-1.262zm0 1.747a.486.486 0 110-.971.486.486 0 010 .971z"/></symbol><symbol viewBox="0 0 16 16" id="2" xmlns="http://www.w3.org/2000/svg"><g clip-path="url(#abclip0)"><path d="M15.437 9.264c.477-4.018-.23-6.555-1.504-7.702V1.56C11.876-.4 4.928-.69 2.467 1.649 1.36 2.792.972 4.47.929 6.548c-.042 2.078-.093 5.97 3.534 7.026h.004l-.004 1.613s-.024.653.393.785c.477.154.693-.15 2.178-1.922 2.483.215 4.39-.278 4.606-.35.501-.168 3.338-.544 3.797-4.436zm-8.158 3.65s-1.572 1.96-2.06 2.469c-.16.165-.336.15-.333-.178l.012-2.677c-3.075-.882-2.894-4.196-2.86-5.93.033-1.735.35-3.156 1.286-4.112 2.16-2.025 8.25-1.572 9.803-.114 1.897 1.682 1.222 6.434 1.226 6.596-.39 3.25-2.689 3.456-3.112 3.596-.18.06-1.857.492-3.962.35z"/><path d="M8.148 2.865c-.257 0-.257.4 0 .403 1.991.015 3.631 1.403 3.65 3.95 0 .268.393.265.39-.004h-.001c-.022-2.743-1.812-4.334-4.039-4.35z"/><path d="M10.767 6.795c-.006.266.387.278.39.01.033-1.513-.9-2.759-2.652-2.89-.257-.019-.284.384-.028.403 1.52.115 2.32 1.153 2.29 2.477zm-.42 1.721c-.329-.19-.664-.072-.803.115l-.29.376c-.147.19-.423.165-.423.165-2.009-.531-2.546-2.634-2.546-2.634s-.025-.285.159-.437l.363-.3c.181-.144.296-.491.111-.832-.493-.891-.825-1.198-.993-1.434-.178-.222-.444-.272-.722-.122h-.006c-.576.337-1.208.968-1.006 1.618.345.686.978 2.87 2.997 4.521.949.78 2.45 1.58 3.087 1.765l.006.01c.628.209 1.239-.447 1.565-1.041v-.005c.145-.287.097-.559-.115-.737-.374-.365-.94-.769-1.384-1.028z"/><path d="M8.78 5.403c.64.037.95.372.984 1.059.012.269.402.25.39-.019-.043-.897-.51-1.397-1.353-1.444-.257-.015-.28.388-.022.404z"/></g><defs><clipPath id="abclip0"><path d="M0 0h16v16H0z"/></clipPath></defs></symbol><symbol viewBox="0 0 17 17" id="3" xmlns="http://www.w3.org/2000/svg"><g clip-path="url(#acclip0)"><path d="M14.107 9.228c-.275-.347-.197-.501 0-.812.003-.003 2.272-3.138 2.506-4.201l.001-.001c.116-.388 0-.672-.562-.672h-1.858c-.474 0-.692.244-.809.517 0 0-.946 2.266-2.285 3.734-.432.424-.631.56-.867.56-.117 0-.297-.136-.297-.523V4.214c0-.465-.133-.672-.524-.672H6.489c-.297 0-.473.216-.473.418 0 .44.67.542.739 1.782v2.69c0 .589-.107.697-.345.697-.631 0-2.165-2.274-3.074-4.878-.183-.505-.362-.709-.84-.709H.638c-.53 0-.637.245-.637.518 0 .483.632 2.885 2.938 6.058 1.537 2.167 3.702 3.34 5.671 3.34 1.184 0 1.328-.26 1.328-.709 0-2.07-.107-2.265.486-2.265.275 0 .748.136 1.853 1.18 1.263 1.24 1.47 1.794 2.178 1.794h1.858c.53 0 .798-.26.644-.775-.353-1.081-2.742-3.306-2.85-3.455z"/></g><defs><clipPath id="acclip0"><path d="M0 0h17v17H0z"/></clipPath></defs></symbol><symbol viewBox="0 0 16 16" id="4" xmlns="http://www.w3.org/2000/svg"><path d="M14.828 0h-10c-.11 0-.208.05-.275.127a.364.364 0 00-.093.24v3.148H3c-.11 0-.207.05-.275.126a.362.362 0 00-.092.242V7.03h-1.46c-.11 0-.209.05-.276.127a.364.364 0 00-.092.24v8.235c0 .203.164.368.367.368h10a.368.368 0 00.367-.368v-3.147H13a.368.368 0 00.368-.368V8.97h1.46a.368.368 0 00.368-.368V.368A.368.368 0 0014.828 0zM12.88.57a.416.416 0 110 .833.416.416 0 010-.832zm-1.23 0a.416.416 0 110 .833.416.416 0 010-.832zm-.941 14.566H1.663V9.254h9.045v5.882zm-3.13-7.119a.416.416 0 11.832 0 .416.416 0 01-.833 0zm1.229 0a.416.416 0 11.832 0 .416.416 0 01-.832 0zm1.623.417a.416.416 0 110-.833.416.416 0 010 .833zm2.106 3.187h-.998V7.398a.368.368 0 00-.368-.368h-7.68V5.74h9.045v5.882zm-3.13-7.119a.417.417 0 11.833 0 .417.417 0 01-.834 0zm1.229 0a.416.416 0 11.832 0 .416.416 0 01-.832 0zm1.623.417a.416.416 0 110-.833.416.416 0 010 .832zm2.105 3.187h-.997V3.883A.368.368 0 0013 3.515H5.32V2.224h9.045v5.882zm-.277-6.703a.416.416 0 110-.832.416.416 0 010 .832z"/></symbol><symbol viewBox="0 0 15 15" id="5" xmlns="http://www.w3.org/2000/svg"><path d="M13.9 0H4.527a.343.343 0 00-.258.119.341.341 0 00-.086.226v2.95h-1.37a.344.344 0 00-.257.119.34.34 0 00-.087.226v2.95H1.1a.343.343 0 00-.258.12.341.341 0 00-.087.226v7.72c0 .19.155.344.345.344h9.374c.19 0 .345-.155.345-.345v-2.95h1.37c.19 0 .344-.155.344-.345V8.41H13.9c.19 0 .345-.155.345-.345V.345A.345.345 0 0013.9 0zm-1.825.535a.39.39 0 110 .78.39.39 0 010-.78zm-1.152 0a.39.39 0 110 .78.39.39 0 010-.78zm-.884 13.655H1.56V8.676h8.48v5.514zM7.105 7.516a.39.39 0 11.78 0 .39.39 0 01-.78 0zm1.152 0a.39.39 0 11.78 0 .39.39 0 01-.78 0zm1.522.39a.39.39 0 110-.78.39.39 0 010 .78zm1.974 2.989h-.935v-3.96a.345.345 0 00-.345-.344h-7.2V5.38h8.48v5.515zM8.818 4.22a.39.39 0 11.782 0 .39.39 0 01-.782 0zm1.153 0a.39.39 0 11.78 0 .39.39 0 01-.78 0zm1.522.39a.39.39 0 110-.78.39.39 0 010 .78zm1.974 2.99h-.935V3.64a.345.345 0 00-.345-.345h-7.2v-1.21h8.48v5.514zm-.26-6.283a.39.39 0 110-.781.39.39 0 010 .78z"/></symbol><symbol viewBox="0 0 9 9" id="arrow-bottom" xmlns="http://www.w3.org/2000/svg"><g clip-path="url(#afclip0)"><path d="M8.943 2.488a.196.196 0 00-.277-.276L4.501 6.376.336 2.211a.196.196 0 10-.276.277L4.363 6.79c.076.076.2.076.276 0l4.304-4.303z"/><path d="M.002 2.35a.196.196 0 01.334-.139l4.165 4.165 4.165-4.165a.196.196 0 11.277.277L4.639 6.791a.196.196 0 01-.276 0L.06 2.488a.196.196 0 01-.058-.138z"/></g><defs><clipPath id="afclip0"><path transform="rotate(90 4.5 4.5)" d="M0 0h9v9H0z"/></clipPath></defs></symbol><symbol viewBox="0 0 15 15" id="arrow-left" xmlns="http://www.w3.org/2000/svg"><g clip-path="url(#agclip0)"><path d="M10.853 14.905a.326.326 0 00.46-.461l-6.94-6.942L11.315.56a.326.326 0 10-.461-.46L3.682 7.272a.326.326 0 000 .46l7.17 7.173z"/><path d="M11.084.004a.326.326 0 01.23.556l-6.94 6.942 6.94 6.94a.327.327 0 01-.46.462L3.68 7.732a.326.326 0 010-.46L10.853.1a.326.326 0 01.231-.096z"/></g><defs><clipPath id="agclip0"><path transform="rotate(180 7.5 7.5)" d="M0 0h15v15H0z"/></clipPath></defs></symbol><symbol viewBox="0 0 15 15" id="arrow-right" xmlns="http://www.w3.org/2000/svg"><g clip-path="url(#ahclip0)"><path d="M4.147.096a.326.326 0 00-.46.46l6.94 6.942-6.942 6.942a.326.326 0 00.453.469l.008-.009 7.172-7.172a.326.326 0 000-.46L4.148.095z"/><path d="M3.916 14.996a.326.326 0 01-.23-.556l6.94-6.942-6.94-6.94a.326.326 0 11.46-.462l7.173 7.172a.326.326 0 010 .46L4.147 14.9a.326.326 0 01-.231.096z"/></g><defs><clipPath id="ahclip0"><path d="M0 0h15v15H0z"/></clipPath></defs></symbol><symbol viewBox="0 0 9 9" id="arrow-top" xmlns="http://www.w3.org/2000/svg"><g clip-path="url(#aiclip0)"><path d="M.057 6.512a.196.196 0 00.277.276l4.165-4.164 4.165 4.165a.196.196 0 10.276-.277L4.637 2.21a.196.196 0 00-.276 0L.057 6.512z"/><path d="M8.998 6.65a.196.196 0 01-.334.139L4.499 2.624.334 6.789a.196.196 0 11-.277-.277l4.304-4.303a.196.196 0 01.276 0L8.94 6.512a.196.196 0 01.058.138z"/></g><defs><clipPath id="aiclip0"><path transform="rotate(-90 4.5 4.5)" d="M0 0h9v9H0z"/></clipPath></defs></symbol><symbol viewBox="0 0 15 15" id="calendar" xmlns="http://www.w3.org/2000/svg"><path d="M1.318 2.021h1.993v-.966a.44.44 0 01.878 0v.966h2.872v-.966a.44.44 0 01.878 0v.966h2.871v-.966a.44.44 0 01.88 0v.966h1.992A1.32 1.32 0 0115 3.34v9.726a1.32 1.32 0 01-1.318 1.319H1.318A1.32 1.32 0 010 13.066V3.34a1.32 1.32 0 011.318-1.32zm12.364.88H11.69v.966a.44.44 0 01-.88 0V2.9H7.94v.967a.44.44 0 01-.88 0V2.9H4.19v.967a.44.44 0 01-.88 0V2.9H1.319a.44.44 0 00-.44.44v1.963h13.243V3.34a.44.44 0 00-.44-.44zM1.318 13.505h12.364a.44.44 0 00.44-.44V6.182H.878v6.884c0 .243.197.44.44.44z"/><path d="M11.953 7.412h.469a.44.44 0 010 .879h-.469a.44.44 0 010-.879zm-2.343 0h.468a.44.44 0 010 .879H9.61a.44.44 0 010-.879zm-2.344 0h.468a.44.44 0 010 .879h-.468a.44.44 0 010-.879zm-2.344 0h.469a.44.44 0 010 .879h-.47a.44.44 0 010-.879zm-2.344 0h.469a.44.44 0 010 .879h-.469a.44.44 0 010-.879zm9.375 1.875h.469a.44.44 0 010 .879h-.469a.44.44 0 010-.879zm-2.343 0h.468a.44.44 0 010 .879H9.61a.44.44 0 110-.879zm-2.344 0h.468a.44.44 0 010 .879h-.468a.44.44 0 110-.879zm-2.344 0h.469a.44.44 0 010 .879h-.47a.44.44 0 110-.879zm-2.344 0h.469a.44.44 0 010 .879h-.469a.44.44 0 110-.879zm9.375 1.875h.469a.44.44 0 010 .879h-.469a.44.44 0 110-.879zm-2.343 0h.468a.44.44 0 010 .879H9.61a.44.44 0 110-.879zm-2.344 0h.468a.44.44 0 010 .879h-.468a.44.44 0 110-.879zm-2.344 0h.469a.44.44 0 010 .879h-.47a.44.44 0 110-.879zm-2.344 0h.469a.44.44 0 010 .879h-.469a.44.44 0 110-.879z"/></symbol><symbol viewBox="0 0 512.001 512.001" id="cancel" xmlns="http://www.w3.org/2000/svg"><path d="M284.286 256.002L506.143 34.144c7.811-7.811 7.811-20.475 0-28.285-7.811-7.81-20.475-7.811-28.285 0L256 227.717 34.143 5.859c-7.811-7.811-20.475-7.811-28.285 0-7.81 7.811-7.811 20.475 0 28.285l221.857 221.857L5.858 477.859c-7.811 7.811-7.811 20.475 0 28.285a19.938 19.938 0 0014.143 5.857 19.94 19.94 0 0014.143-5.857L256 284.287l221.857 221.857c3.905 3.905 9.024 5.857 14.143 5.857s10.237-1.952 14.143-5.857c7.811-7.811 7.811-20.475 0-28.285L284.286 256.002z"/></symbol><symbol viewBox="0 0 27 27" id="cards" xmlns="http://www.w3.org/2000/svg"><g clip-path="url(#alclip0)"><path d="M6.798 0H.73A.733.733 0 000 .73v6.068c0 .402.329.73.73.73h6.068c.402 0 .73-.328.73-.73V.73A.733.733 0 006.799 0zM6.14 6.14H1.462V1.462H6.14V6.14zM15.934 0H9.869a.733.733 0 00-.731.73v6.068c0 .402.329.73.73.73h6.067a.732.732 0 00.731-.73V.73a.733.733 0 00-.73-.731zm-.657 6.14h-4.678V1.462h4.678V6.14zM6.798 9.778H.73a.733.733 0 00-.731.73v6.068c0 .402.329.73.73.73h6.068c.402 0 .73-.328.73-.73v-6.067a.733.733 0 00-.73-.731zm-.658 6.067H1.462V11.24H6.14v4.605zm9.794-6.067H9.869a.733.733 0 00-.731.73v6.068c0 .402.329.73.73.73h6.067a.732.732 0 00.731-.73v-6.067a.733.733 0 00-.73-.731zm-.657 6.067h-4.678V11.24h4.678v4.605zM25.072 0h-6.067a.733.733 0 00-.731.73v6.068c0 .402.329.73.73.73h6.067a.732.732 0 00.731-.73V.73a.733.733 0 00-.73-.731zm-.658 6.14h-4.678V1.462h4.678V6.14zm.658 3.638h-6.067a.733.733 0 00-.731.73v6.068c0 .402.329.73.73.73h6.067a.732.732 0 00.731-.73v-6.067a.733.733 0 00-.73-.731zm-.658 6.067h-4.678V11.24h4.678v4.605zM6.798 19.556H.73a.733.733 0 00-.731.73v6.068c0 .402.329.73.73.73h6.068c.402 0 .73-.328.73-.73v-6.067a.733.733 0 00-.73-.731zm-.658 6.14H1.462v-4.678H6.14v4.678zm9.794-6.14H9.869a.733.733 0 00-.731.73v6.068c0 .402.329.73.73.73h6.067a.732.732 0 00.731-.73v-6.067a.733.733 0 00-.73-.731zm-.657 6.14h-4.678v-4.678h4.678v4.678zm9.795-6.14h-6.067a.733.733 0 00-.731.73v6.068c0 .402.329.73.73.73h6.067a.732.732 0 00.731-.73v-6.067a.733.733 0 00-.73-.731zm-.658 6.14h-4.678v-4.678h4.678v4.678z"/></g><defs><clipPath id="alclip0"><path d="M0 0h27v27H0z"/></clipPath></defs></symbol><symbol viewBox="0 0 10 10" id="check" xmlns="http://www.w3.org/2000/svg"><g clip-path="url(#amclip0)"><path d="M9.854 1.475a.5.5 0 00-.708 0l-5.99 5.99L.854 5.162a.5.5 0 00-.708.707l2.657 2.656a.5.5 0 00.707 0l6.344-6.343a.5.5 0 000-.707z"/></g><defs><clipPath id="amclip0"><path d="M0 0h10v10H0z"/></clipPath></defs></symbol><symbol viewBox="0 0 16 16" id="checkb" xmlns="http://www.w3.org/2000/svg"><rect x=".5" y=".5" width="15" height="15" rx="2.5"/></symbol><symbol viewBox="0 0 15 15" id="download" xmlns="http://www.w3.org/2000/svg"><path d="M11.736 5.175H9.495v1.33h2.24c.668 0 1.185.34 1.185.634v5.897c0 .293-.518.634-1.184.634H3.264c-.667 0-1.184-.34-1.184-.634V7.14c0-.293.517-.634 1.184-.634h2.24v-1.33h-2.24C1.854 5.176.75 6.039.75 7.14v5.897C.75 14.139 1.854 15 3.264 15h8.472c1.41 0 2.514-.863 2.514-1.963V7.139c0-1.101-1.104-1.964-2.514-1.964z"/><path d="M5.532 3.315c.17 0 .34-.065.47-.195l.833-.832v6.765a.665.665 0 101.33 0v-6.81l.877.877a.663.663 0 00.94 0c.26-.26.26-.68 0-.94L7.997.194A.662.662 0 007.527 0h-.01c-.17 0-.34.065-.47.194L5.062 2.18a.665.665 0 00.47 1.135z"/></symbol><symbol viewBox="0 0 34 34" id="exel" xmlns="http://www.w3.org/2000/svg"><path d="M18.74 1.306a1.07 1.07 0 00-.873-.225l-17 3.187A1.06 1.06 0 000 5.312v23.375c0 .51.363.95.867 1.043l17 3.188a1.062 1.062 0 001.258-1.043V2.124c0-.317-.14-.617-.385-.819zM17 30.593L2.125 27.805V6.194L17 3.406v27.187z"/><path d="M32.938 5.312H18.062a1.063 1.063 0 000 2.125h13.813v19.125H18.062a1.063 1.063 0 000 2.125h14.875c.587 0 1.063-.476 1.063-1.063V6.374c0-.586-.476-1.062-1.063-1.062z"/><path d="M22.313 9.562h-4.25a1.063 1.063 0 000 2.125h4.25a1.063 1.063 0 000-2.125zm0 4.25h-4.25a1.063 1.063 0 000 2.125h4.25a1.063 1.063 0 000-2.125zm0 4.25h-4.25a1.063 1.063 0 000 2.125h4.25a1.063 1.063 0 000-2.125zm0 4.25h-4.25a1.063 1.063 0 000 2.125h4.25a1.063 1.063 0 000-2.125zm6.375-12.75h-2.125a1.063 1.063 0 000 2.125h2.125a1.063 1.063 0 000-2.125zm0 4.25h-2.125a1.063 1.063 0 000 2.125h2.125a1.063 1.063 0 000-2.125zm0 4.25h-2.125a1.063 1.063 0 000 2.125h2.125a1.063 1.063 0 000-2.125zm0 4.25h-2.125a1.063 1.063 0 000 2.125h2.125a1.063 1.063 0 000-2.125zM14.614 20.55l-7.438-8.5a1.062 1.062 0 00-1.5-.1 1.06 1.06 0 00-.1 1.498l7.438 8.5a1.06 1.06 0 001.5.1 1.06 1.06 0 00.1-1.498z"/><path d="M14.465 10.85a1.062 1.062 0 00-1.492.184l-7.437 9.563a1.064 1.064 0 00.839 1.715c.314 0 .629-.14.837-.408l7.438-9.563a1.062 1.062 0 00-.185-1.491z"/></symbol><symbol viewBox="0 0 17 17" id="filter" xmlns="http://www.w3.org/2000/svg"><g clip-path="url(#aqclip0)"><path d="M17 3.005v-.996H4.98v-.996H1.992v.996H0v.996h1.992V4H4.98v-.996H17zm-14.012 0v-.996h.996v.996h-.996zM4.98 15.987v-.996H17v-.996H4.98V13H1.992v.996H0v.996h1.992v.996H4.98zm-1.992-.996v-.996h.996v.996h-.996zM17 11.007v-.996H9.629v-.996H6.64v.996H0v.996h6.64v.996h2.99v-.996H17zm-9.363 0v-.996h.996v.996h-.996zM17 6.99v-.997h-1.781v-.996H12.23v.996H0v.996h12.23v.996h2.989V6.99H17zm-3.774 0v-.997h.996v.996h-.996z"/></g><defs><clipPath id="aqclip0"><path transform="rotate(90 8.5 8.5)" d="M0 0h17v17H0z"/></clipPath></defs></symbol><symbol viewBox="0 0 27 27" id="icon-cards" xmlns="http://www.w3.org/2000/svg"><g clip-path="url(#arclip0)"><path d="M6.798 0H.73A.733.733 0 000 .73v6.068c0 .402.329.73.73.73h6.068c.402 0 .73-.328.73-.73V.73A.733.733 0 006.799 0zM6.14 6.14H1.462V1.462H6.14V6.14zM15.934 0H9.869a.733.733 0 00-.731.73v6.068c0 .402.329.73.73.73h6.067a.732.732 0 00.731-.73V.73a.733.733 0 00-.73-.731zm-.657 6.14h-4.678V1.462h4.678V6.14zM6.798 9.778H.73a.733.733 0 00-.731.73v6.068c0 .402.329.73.73.73h6.068c.402 0 .73-.328.73-.73v-6.067a.733.733 0 00-.73-.731zm-.658 6.067H1.462V11.24H6.14v4.605zm9.794-6.067H9.869a.733.733 0 00-.731.73v6.068c0 .402.329.73.73.73h6.067a.732.732 0 00.731-.73v-6.067a.733.733 0 00-.73-.731zm-.657 6.067h-4.678V11.24h4.678v4.605zM25.072 0h-6.067a.733.733 0 00-.731.73v6.068c0 .402.329.73.73.73h6.067a.732.732 0 00.731-.73V.73a.733.733 0 00-.73-.731zm-.658 6.14h-4.678V1.462h4.678V6.14zm.658 3.638h-6.067a.733.733 0 00-.731.73v6.068c0 .402.329.73.73.73h6.067a.732.732 0 00.731-.73v-6.067a.733.733 0 00-.73-.731zm-.658 6.067h-4.678V11.24h4.678v4.605zM6.798 19.556H.73a.733.733 0 00-.731.73v6.068c0 .402.329.73.73.73h6.068c.402 0 .73-.328.73-.73v-6.067a.733.733 0 00-.73-.731zm-.658 6.14H1.462v-4.678H6.14v4.678zm9.794-6.14H9.869a.733.733 0 00-.731.73v6.068c0 .402.329.73.73.73h6.067a.732.732 0 00.731-.73v-6.067a.733.733 0 00-.73-.731zm-.657 6.14h-4.678v-4.678h4.678v4.678zm9.795-6.14h-6.067a.733.733 0 00-.731.73v6.068c0 .402.329.73.73.73h6.067a.732.732 0 00.731-.73v-6.067a.733.733 0 00-.73-.731zm-.658 6.14h-4.678v-4.678h4.678v4.678z"/></g><defs><clipPath id="arclip0"><path d="M0 0h27v27H0z"/></clipPath></defs></symbol><symbol viewBox="0 0 33 33" id="icon-table" xmlns="http://www.w3.org/2000/svg"><path d="M0 3.352h7.302v7.302H0V3.352zm9.623 0H33v7.302H9.623V3.352zM0 12.827h7.302v7.302H0v-7.302zm9.623 0H33v7.302H9.623v-7.302zM0 22.302h7.302v7.302H0v-7.302zm9.623 0H33v7.302H9.623v-7.302z"/></symbol><symbol viewBox="0 0 15 15" id="phone" xmlns="http://www.w3.org/2000/svg"><g clip-path="url(#atclip0)"><path d="M14.606 11.571L11.57 9.547a.886.886 0 00-1.186.192l-.885 1.137a.378.378 0 01-.484.103l-.169-.093c-.557-.304-1.251-.683-2.65-2.081C4.8 7.406 4.42 6.712 4.117 6.155l-.093-.168a.378.378 0 01.1-.486l1.137-.885a.887.887 0 00.193-1.186L3.428.394A.882.882 0 002.24.126L.97.89a1.79 1.79 0 00-.816 1.06C-.304 3.616.04 6.49 4.275 10.726 7.644 14.094 10.152 15 11.875 15a4.43 4.43 0 001.175-.153 1.789 1.789 0 001.06-.817l.764-1.269a.882.882 0 00-.268-1.189zm-.163.933l-.762 1.27c-.168.287-.441.5-.762.59-1.538.422-4.224.073-8.29-3.993C.563 6.305.214 3.62.636 2.081c.091-.321.303-.595.591-.763l1.27-.762a.382.382 0 01.516.116l1.1 1.651.923 1.385a.385.385 0 01-.084.515l-1.136.884a.875.875 0 00-.232 1.123l.09.164c.32.586.717 1.314 2.167 2.764 1.45 1.45 2.178 1.847 2.764 2.167l.164.09a.875.875 0 001.123-.231l.884-1.137a.385.385 0 01.515-.084l3.036 2.025c.17.113.222.34.116.516zM8.5 2.501a4.254 4.254 0 014.249 4.25.25.25 0 00.5 0A4.754 4.754 0 008.499 2a.25.25 0 100 .5z"/><path d="M8.5 4.001a2.753 2.753 0 012.75 2.75.25.25 0 10.499 0 3.253 3.253 0 00-3.25-3.25.25.25 0 100 .5z"/><path d="M8.5 5.5c.69.002 1.248.56 1.25 1.25a.25.25 0 00.5 0A1.752 1.752 0 008.5 5.002a.25.25 0 100 .5z"/></g><defs><clipPath id="atclip0"><path d="M0 0h15v15H0z"/></clipPath></defs></symbol><symbol viewBox="0 0 4 8" id="qw" xmlns="http://www.w3.org/2000/svg"><path d="M1.569 5.198c.006-.348.045-.624.119-.826.073-.202.222-.426.448-.672l.575-.594c.247-.278.37-.577.37-.896 0-.308-.081-.548-.242-.72-.161-.177-.396-.264-.703-.264-.3 0-.54.079-.721.237a.802.802 0 00-.272.637H.33c.005-.475.174-.857.505-1.147.334-.293.768-.44 1.3-.44.554 0 .985.15 1.293.449.31.296.466.703.466 1.222 0 .512-.238 1.018-.712 1.516l-.48.474c-.213.238-.32.579-.32 1.024h-.813zm-.035 1.393c0-.132.04-.241.118-.33.082-.09.202-.136.36-.136.159 0 .279.046.361.137a.464.464 0 01.123.33.464.464 0 01-.123.329c-.082.085-.202.127-.36.127-.159 0-.279-.042-.36-.127a.474.474 0 01-.12-.33z"/></symbol><symbol viewBox="0 0 13 13" id="r" xmlns="http://www.w3.org/2000/svg"><g clip-path="url(#avclip0)"><path d="M12.92 6.308L8.859 2.246a.27.27 0 10-.383.383l3.6 3.6H.271a.27.27 0 100 .542h11.804l-3.6 3.6a.27.27 0 10.383.383l4.063-4.063a.27.27 0 000-.383z"/></g><defs><clipPath id="avclip0"><path d="M0 0h13v13H0z"/></clipPath></defs></symbol><symbol viewBox="0 0 6 6" id="right" xmlns="http://www.w3.org/2000/svg"><g clip-path="url(#awclip0)"><path d="M5.963 2.912L4.088 1.037a.125.125 0 10-.176.176l1.661 1.662H.125a.125.125 0 100 .25h5.448L3.912 4.787a.125.125 0 10.176.176l1.875-1.875a.125.125 0 000-.176z"/></g><defs><clipPath id="awclip0"><path d="M0 0h6v6H0z"/></clipPath></defs></symbol><symbol viewBox="0 0 15 15" id="search" xmlns="http://www.w3.org/2000/svg"><g clip-path="url(#axclip0)"><path d="M14.874 14.235l-3.645-3.645a6.37 6.37 0 001.57-4.194A6.402 6.402 0 006.403 0 6.402 6.402 0 00.007 6.396a6.405 6.405 0 006.396 6.396 6.37 6.37 0 004.194-1.57l3.645 3.645a.452.452 0 00.316.133.45.45 0 00.316-.765zM.902 6.395A5.504 5.504 0 016.399.899a5.504 5.504 0 015.498 5.498 5.507 5.507 0 01-5.498 5.5 5.507 5.507 0 01-5.497-5.5z"/></g><defs><clipPath id="axclip0"><path d="M0 0h15v15H0z"/></clipPath></defs></symbol><symbol viewBox="0 0 33 33" id="table" xmlns="http://www.w3.org/2000/svg"><path d="M0 3.352h7.302v7.302H0V3.352zm9.623 0H33v7.302H9.623V3.352zM0 12.827h7.302v7.302H0v-7.302zm9.623 0H33v7.302H9.623v-7.302zM0 22.302h7.302v7.302H0v-7.302zm9.623 0H33v7.302H9.623v-7.302z"/></symbol><symbol viewBox="0 0 14 14" id="update" xmlns="http://www.w3.org/2000/svg"><path d="M13.185 10.234L11.033 8.99a.654.654 0 00-.98.566v.754H4.13A3.157 3.157 0 01.977 7.157a.488.488 0 00-.977 0 4.135 4.135 0 004.13 4.13h5.923v.755c0 .502.544.817.98.566l2.152-1.243a.654.654 0 000-1.131zM9.87 2.712H3.946v-.754a.654.654 0 00-.98-.566L.815 2.635a.654.654 0 000 1.131L2.967 5.01c.435.25.98-.063.98-.566V3.69h5.922a3.157 3.157 0 013.154 3.154.488.488 0 00.977 0 4.135 4.135 0 00-4.13-4.13z"/></symbol><symbol viewBox="0 0 14 14" id="user" xmlns="http://www.w3.org/2000/svg"><g clip-path="url(#baclip0)"><path d="M7 7.018A6.699 6.699 0 00.309 13.71a.291.291 0 00.582 0A6.114 6.114 0 017 7.6a6.117 6.117 0 016.11 6.11.291.291 0 00.581 0A6.698 6.698 0 007 7.02zM7 0a3.204 3.204 0 00-3.2 3.2c0 1.765 1.436 3.2 3.2 3.2 1.764 0 3.2-1.435 3.2-3.2C10.2 1.435 8.764 0 7 0zm0 5.818A2.621 2.621 0 014.382 3.2 2.621 2.621 0 017 .582 2.621 2.621 0 019.618 3.2 2.621 2.621 0 017 5.818z"/></g><defs><clipPath id="baclip0"><path d="M0 0h14v14H0z"/></clipPath></defs></symbol><symbol viewBox="0 0 16 16" id="wallet" xmlns="http://www.w3.org/2000/svg"><path d="M14.7 7.996a.216.216 0 01-.216-.217V4.61a.51.51 0 00-.51-.511H9.127a.216.216 0 110-.433h4.845a.944.944 0 01.943.943V7.78a.216.216 0 01-.216.217zm-6.28 7.003h-.636a.216.216 0 010-.433h.636a.216.216 0 010 .433zm-4.299 0H2.586a2.156 2.156 0 01-2.154-2.154V2.55a.216.216 0 11.433 0v10.296a1.723 1.723 0 001.72 1.721h1.536a.216.216 0 010 .433zm2.149 0h-.633a.216.216 0 010-.433h.633a.216.216 0 010 .433zm7.704 0H9.933a.216.216 0 010-.433h4.041a.51.51 0 00.51-.51v-3.23a.216.216 0 01.433-.002v3.232a.944.944 0 01-.943.943z"/><path d="M9.128 4.098H1.981a1.549 1.549 0 110-3.098h7.147a.216.216 0 01.216.216v2.666a.216.216 0 01-.216.216zM1.981 1.433a1.116 1.116 0 100 2.232h6.93V1.433h-6.93zm13.117 9.608h-2.994a1.74 1.74 0 010-3.478h2.994a.47.47 0 01.47.47v2.538a.47.47 0 01-.47.47zm-2.994-3.045a1.307 1.307 0 000 2.613h2.994a.038.038 0 00.037-.038V8.033A.037.037 0 0015.112 8a.038.038 0 00-.014-.003h-2.994z"/><path d="M12.278 10.109a.807.807 0 110-1.613.807.807 0 010 1.613zm0-1.181a.374.374 0 100 .748.374.374 0 000-.748z"/></symbol></svg>