<svg width="31" height="34" fill="none" xmlns="http://www.w3.org/2000/svg" style="background:#fff"><path d="M24.966 16.698h2.371a.974.974 0 00.973-.972v-2.372a.974.974 0 00-.973-.972h-2.371a.973.973 0 00-.973.972v2.372c0 .536.437.972.973.972zm.023-3.32h2.325v2.324h-2.325v-2.324zm-.023 9.629h2.371a.974.974 0 00.973-.973v-2.371a.974.974 0 00-.973-.973h-2.371a.973.973 0 00-.973.973v2.371c0 .537.437.973.973.973zm.023-3.32h2.325v2.324h-2.325v-2.325zm-6.791-2.989h2.372a.973.973 0 00.972-.972v-2.372a.973.973 0 00-.972-.972h-2.372a.973.973 0 00-.972.972v2.372c0 .536.436.972.972.972zm.024-3.32h2.324v2.324h-2.324v-2.324zM7.034 24.703H4.662a.973.973 0 00-.972.973v2.371c0 .536.436.973.972.973h2.372a.973.973 0 00.972-.973v-2.372a.973.973 0 00-.972-.972zm-.024 3.32H4.686V25.7H7.01v2.324zm.024-15.641H4.662a.973.973 0 00-.972.972v2.372c0 .536.436.972.972.972h2.372a.973.973 0 00.972-.972v-2.372a.973.973 0 00-.972-.972zm-.024 3.32H4.686v-2.324H7.01v2.324zm11.188 7.157h2.372a.973.973 0 00.972-.973v-2.371a.973.973 0 00-.972-.973h-2.372a.973.973 0 00-.972.973v2.371c0 .537.436.973.972.973zm.024-3.32h2.324v2.324h-2.324v-2.325zM28.804 2.275h-2.129v-.761c0-.836-.68-1.515-1.514-1.515h-.23c-.834 0-1.514.68-1.514 1.515v.761H8.582v-.761C8.582.679 7.902 0 7.068 0h-.229c-.835 0-1.514.68-1.514 1.515v.761h-2.13A2.496 2.496 0 00.702 4.77v26.74A2.493 2.493 0 003.192 34h25.616a2.493 2.493 0 002.49-2.49V4.77a2.497 2.497 0 00-2.493-2.494zm-4.39-.761c0-.286.232-.519.518-.519h.229c.286 0 .518.233.518.519v.761h-1.265v-.761zm-18.093 0c0-.286.232-.519.518-.519h.229c.286 0 .518.233.518.519v.761H6.321v-.761zM30.302 31.51c0 .824-.67 1.494-1.494 1.494H3.192c-.824 0-1.494-.67-1.494-1.494v-.003a2.48 2.48 0 001.497.5h20.193c.666 0 1.292-.259 1.763-.73l5.151-5.15v5.383zm-5.659-1.133c.04-.161.06-.33.06-.502V26.55c0-.627.51-1.137 1.137-1.137h3.325c.173 0 .341-.021.502-.06l-5.024 5.024zm5.659-20.984H9.08a.498.498 0 000 .996h21.222V23.28c0 .627-.51 1.137-1.137 1.137H25.84a2.136 2.136 0 00-2.133 2.133v3.325c0 .627-.51 1.137-1.137 1.137H3.195a1.5 1.5 0 01-1.497-1.498V10.39h5.39a.498.498 0 000-.996h-5.39V4.77a1.5 1.5 0 011.497-1.498h2.13v1.464c0 .836.679 1.515 1.514 1.515a.498.498 0 000-.996.519.519 0 01-.518-.519V3.272h17.096v1.464c0 .836.68 1.515 1.515 1.515a.498.498 0 000-.996.52.52 0 01-.518-.519V3.272h4.39a1.5 1.5 0 011.498 1.498v4.623zm-23.268 9.15H4.662a.973.973 0 00-.972.972v2.371c0 .537.436.973.972.973h2.372a.973.973 0 00.972-.973v-2.371a.973.973 0 00-.972-.973zm-.024 3.32H4.686v-2.325H7.01v2.325zm4.42-5.165h2.372a.973.973 0 00.972-.972v-2.372a.973.973 0 00-.972-.972H11.43a.974.974 0 00-.972.972v2.372c0 .536.436.972.972.972zm.024-3.32h2.324v2.324h-2.324v-2.324zm6.767 14.645a.498.498 0 00-.995.024c0 .536.436.973.972.973h2.372a.973.973 0 00.972-.973v-2.372a.973.973 0 00-.973-.972h-2.371a.974.974 0 00-.973.973v.684a.498.498 0 00.997 0v-.66h2.324v2.323H18.22zm-6.79-5.164h2.37a.973.973 0 00.973-.973v-2.371a.973.973 0 00-.972-.973H11.43a.974.974 0 00-.972.973v2.371c0 .537.436.973.972.973zm.023-3.32h2.324v2.324h-2.324v-2.325zm-.024 9.48h2.372a.973.973 0 00.972-.972v-2.372a.973.973 0 00-.972-.972H11.43a.974.974 0 00-.972.973v2.371c0 .536.436.973.972.973zm.024-3.32h2.324v2.324h-2.324V25.7z" fill="#4267B2"/></svg>