<svg width="81" height="81" fill="none" xmlns="http://www.w3.org/2000/svg"><g filter="url(#filter0_d)"><circle cx="40.5" cy="36.5" r="32.5" fill="#4267B2"/></g><path d="M49.866 40.167H48.6v1.266h1.266v-1.266zm0 2.533H48.6v1.267h1.266V42.7zm0 2.533H48.6V46.5h1.266v-1.267zm0-10.133H48.6v1.267h1.266V35.1zm0 2.533H48.6V38.9h1.266v-1.267zm0-5.066H48.6v1.266h1.266v-1.266zm0-2.534H48.6V31.3h1.266v-1.267z" fill="#F0F7FF"/><path d="M60 36.367h-1.638l1.159-1.158-.896-.896-1.158 1.158v-1.638H56.2v1.638l-1.158-1.158-.896.896 1.158 1.158h-1.637v1.266h1.637l-1.158 1.158.896.896 1.158-1.158v11.138h-.063a3.172 3.172 0 00-3.104-2.534H52.4V28.767h2.533V27.5H52.4a4.416 4.416 0 00-1.337-3.167H52.4v-1.266h-6.333v-1.384A1.896 1.896 0 0045.433 18h-8.866a1.896 1.896 0 00-.634 3.683v1.384H29.6v1.266h1.337A4.416 4.416 0 0029.6 27.5h-2.533v1.267H29.6v18.366h-.633a3.172 3.172 0 00-3.104 2.534H25.8V38.529l1.158 1.158.896-.896-1.159-1.158h1.638v-1.266h-1.637l1.158-1.158-.896-.896-1.158 1.158v-1.638h-1.267v1.638l-1.158-1.158-.896.896 1.159 1.158H22v1.266h1.638l-1.159 1.158.896.896 1.158-1.158V49.73A3.172 3.172 0 0022 52.833V56h38v-3.167a3.172 3.172 0 00-2.533-3.103V38.529l1.158 1.158.896-.896-1.159-1.158H60v-1.266zM29.6 50.933v3.8h-1.267v-1.266h-1.266v1.266H25.8v-1.266h-1.267v1.266h-1.266v-1.9a1.9 1.9 0 011.9-1.9h1.9V50.3c0-1.05.85-1.9 1.9-1.9h.633v2.533zm6.967-31.666h8.866a.633.633 0 110 1.266h-8.866a.633.633 0 110-1.266zM44.8 21.8v1.267h-7.6V21.8h7.6zM34.667 54.733h-3.8V52.2h3.8v2.533zm0-3.8h-3.8v-1.266h3.8v1.266zm0-5.066V48.4h-3.8V28.767h3.8v17.1zm0-18.367h-3.8a3.17 3.17 0 013.166-3.167h.634V27.5zm7.6 27.233h-2.534v-1.9c0-.35.284-.633.634-.633h1.266c.35 0 .634.284.634.633v1.9zm3.8-3.8v3.8h-2.534v-1.9a1.9 1.9 0 00-1.9-1.9h-1.266a1.9 1.9 0 00-1.9 1.9v1.9h-2.534v-5.066h10.134v1.266zm0-2.533H35.933v-1.267h10.134V48.4zm0-20.9v18.367H35.933V24.333h10.134V27.5zm5.066 27.233h-3.8V52.2h3.8v2.533zm0-3.8h-3.8v-1.266h3.8v1.266zm0-3.8V48.4h-3.8V28.767h3.8v18.366zm-3.8-19.633v-3.167h.634a3.17 3.17 0 013.166 3.167h-3.8zm11.4 25.333v1.9h-1.266v-1.266H56.2v1.266h-1.267v-1.266h-1.266v1.266H52.4V48.4h.633c1.05 0 1.9.85 1.9 1.9v.633h1.9a1.9 1.9 0 011.9 1.9z" fill="#F0F7FF"/><path d="M33.4 40.167h-1.267v1.266H33.4v-1.266zm0 2.533h-1.267v1.267H33.4V42.7zm0 2.533h-1.267V46.5H33.4v-1.267zm0-10.133h-1.267v1.267H33.4V35.1zm0 2.533h-1.267V38.9H33.4v-1.267zm0-5.066h-1.267v1.266H33.4v-1.266zm0-2.534h-1.267V31.3H33.4v-1.267zM44.167 25.6h-6.333v3.8h6.333v-3.8zm-3.8 2.533h-1.266v-1.266h1.266v1.266zm2.534 0h-1.267v-1.266h1.267v1.266zm1.266 2.534h-6.333v3.8h6.333v-3.8zm-3.8 2.533h-1.266v-1.267h1.266V33.2zm2.534 0h-1.267v-1.267h1.267V33.2zm1.266 2.533h-6.333v3.8h6.333v-3.8zm-3.8 2.534h-1.266V37h1.266v1.267zm2.534 0h-1.267V37h1.267v1.267zm1.266 2.533h-6.333v3.8h6.333v-3.8zm-3.8 2.533h-1.266v-1.266h1.266v1.266zm2.534 0h-1.267v-1.266h1.267v1.266z" fill="#F0F7FF"/><defs><filter id="filter0_d" x="0" y="0" width="81" height="81" filterUnits="userSpaceOnUse" color-interpolation-filters="sRGB"><feFlood flood-opacity="0" result="BackgroundImageFix"/><feColorMatrix in="SourceAlpha" values="0 0 0 0 0 0 0 0 0 0 0 0 0 0 0 0 0 0 127 0"/><feOffset dy="4"/><feGaussianBlur stdDeviation="4"/><feColorMatrix values="0 0 0 0 0.258824 0 0 0 0 0.403922 0 0 0 0 0.698039 0 0 0 0.25 0"/><feBlend in2="BackgroundImageFix" result="effect1_dropShadow"/><feBlend in="SourceGraphic" in2="effect1_dropShadow" result="shape"/></filter></defs></svg>