<svg width="16" height="16" fill="none" xmlns="http://www.w3.org/2000/svg"><path d="M16 6.333c0-1.437-.69-2.782-1.942-3.788-1.228-.986-2.855-1.53-4.582-1.53-1.727 0-3.354.544-4.581 1.53a5.412 5.412 0 00-1.413 1.678 5.72 5.72 0 00-1.842.978C.582 6.051 0 7.187 0 8.402c0 1.108.49 2.16 1.384 2.981l-.088 3.202a.389.389 0 00.652.296l2.281-2.11c.412.078.835.118 1.262.118 1.425 0 2.77-.44 3.795-1.242a8.037 8.037 0 002.07-.221l1.997 1.847a.388.388 0 00.652-.296l-.076-2.756C15.248 9.217 16 7.81 16 6.333zm-10.51 5.78a5.87 5.87 0 01-1.293-.143.388.388 0 00-.349.094l-1.75 1.62.068-2.46a.388.388 0 00-.137-.307C1.222 10.23.777 9.336.777 8.402c0-1.359.933-2.55 2.321-3.195a4.432 4.432 0 00-.145 1.125c0 1.437.69 2.782 1.942 3.788.88.707 1.965 1.186 3.145 1.4a5.64 5.64 0 01-2.55.592zm7.82-2.402a.388.388 0 00-.163.328l.056 2.037-1.475-1.365a.389.389 0 00-.367-.09 7.089 7.089 0 01-1.885.252c-3.169 0-5.747-2.037-5.747-4.54 0-2.504 2.578-4.54 5.747-4.54 3.17 0 5.747 2.036 5.747 4.54 0 1.285-.697 2.516-1.913 3.378z" fill="#303030"/><path d="M9.53 5.179c-.696 0-1.262.566-1.262 1.262a1.263 1.263 0 002.525 0c0-.696-.567-1.262-1.263-1.262zm0 1.747a.486.486 0 11.001-.972.486.486 0 010 .972zm3.301-1.747c-.696 0-1.262.566-1.262 1.262 0 .696.566 1.262 1.262 1.262.696 0 1.262-.566 1.262-1.262 0-.696-.566-1.262-1.262-1.262zm0 1.747a.486.486 0 11.001-.972.486.486 0 010 .972zM6.23 5.179c-.696 0-1.262.566-1.262 1.262 0 .696.566 1.262 1.262 1.262.696 0 1.262-.566 1.262-1.262 0-.696-.566-1.262-1.262-1.262zm0 1.747a.486.486 0 110-.972.486.486 0 010 .972z" fill="#303030"/></svg>