<svg width="16" height="16" fill="none" xmlns="http://www.w3.org/2000/svg"><g clip-path="url(#clip0)" fill="#474747"><path d="M15.437 9.264c.477-4.018-.23-6.555-1.504-7.702V1.56C11.876-.4 4.928-.69 2.467 1.649 1.36 2.792.972 4.47.929 6.548c-.042 2.078-.093 5.97 3.534 7.026h.004l-.004 1.613s-.024.653.393.785c.477.154.693-.15 2.178-1.922 2.483.215 4.39-.278 4.606-.35.501-.168 3.338-.544 3.797-4.436zm-8.158 3.65s-1.572 1.96-2.06 2.469c-.16.165-.336.15-.333-.178l.012-2.677c-3.075-.882-2.894-4.196-2.86-5.93.033-1.735.35-3.156 1.286-4.112 2.16-2.025 8.25-1.572 9.803-.114 1.897 1.682 1.222 6.434 1.226 6.596-.39 3.25-2.689 3.456-3.112 3.596-.18.06-1.857.492-3.962.35z"/><path d="M8.148 2.865c-.257 0-.257.4 0 .403 1.991.015 3.631 1.403 3.65 3.95 0 .268.393.265.39-.004h-.001c-.022-2.743-1.812-4.334-4.039-4.35z"/><path d="M10.767 6.795c-.006.266.387.278.39.01.033-1.513-.9-2.759-2.652-2.89-.257-.019-.284.384-.028.403 1.52.115 2.32 1.153 2.29 2.477zm-.42 1.721c-.329-.19-.664-.072-.803.115l-.29.376c-.147.19-.423.165-.423.165-2.009-.531-2.546-2.634-2.546-2.634s-.025-.285.159-.437l.363-.3c.181-.144.296-.491.111-.832-.493-.891-.825-1.198-.993-1.434-.178-.222-.444-.272-.722-.122h-.006c-.576.337-1.208.968-1.006 1.618.345.686.978 2.87 2.997 4.521.949.78 2.45 1.58 3.087 1.765l.006.01c.628.209 1.239-.447 1.565-1.041v-.005c.145-.287.097-.559-.115-.737-.374-.365-.94-.769-1.384-1.028z"/><path d="M8.78 5.403c.64.037.95.372.984 1.059.012.269.402.25.39-.019-.043-.897-.51-1.397-1.353-1.444-.257-.015-.28.388-.022.404z"/></g><defs><clipPath id="clip0"><path fill="#fff" d="M0 0h16v16H0z"/></clipPath></defs></svg>