<svg width="17" height="17" fill="none" xmlns="http://www.w3.org/2000/svg"><g clip-path="url(#clip0)"><path d="M14.107 9.228c-.275-.347-.197-.501 0-.812.003-.003 2.272-3.138 2.506-4.201l.001-.001c.116-.388 0-.672-.562-.672h-1.858c-.474 0-.692.244-.809.517 0 0-.946 2.266-2.285 3.734-.432.424-.631.56-.867.56-.117 0-.297-.136-.297-.523V4.214c0-.465-.133-.672-.524-.672H6.489c-.297 0-.473.216-.473.418 0 .44.67.542.739 1.782v2.69c0 .589-.107.697-.345.697-.631 0-2.165-2.274-3.074-4.878-.183-.505-.362-.709-.84-.709H.638c-.53 0-.637.245-.637.518 0 .483.632 2.885 2.938 6.058 1.537 2.167 3.702 3.34 5.671 3.34 1.184 0 1.328-.26 1.328-.709 0-2.07-.107-2.265.486-2.265.275 0 .748.136 1.853 1.18 1.263 1.24 1.47 1.794 2.178 1.794h1.858c.53 0 .798-.26.644-.775-.353-1.081-2.742-3.306-2.85-3.455z" fill="#474747"/></g><defs><clipPath id="clip0"><path fill="#fff" d="M0 0h17v17H0z"/></clipPath></defs></svg>