<svg width="14" height="12" fill="none" xmlns="http://www.w3.org/2000/svg"><g clip-path="url(#clip0)"><path d="M13.91 3.317a.235.235 0 00-.007-.368.342.342 0 00-.422 0L7 8.502.524 2.948a.341.341 0 00-.43-.006.235.235 0 000 .375l6.694 5.738a.341.341 0 00.43 0l6.694-5.738z" fill="#F44336"/><path d="M.003 3.133c0-.144.136-.261.304-.261.081 0 .159.027.216.076l6.479 5.554 6.478-5.554a.342.342 0 01.43 0 .236.236 0 010 .37L7.218 9.055a.341.341 0 01-.43 0L.093 3.318a.243.243 0 01-.09-.185z" fill="#000"/></g><defs><clipPath id="clip0"><path fill="#fff" transform="rotate(90 7 7)" d="M0 0h12v14H0z"/></clipPath></defs></svg>