<svg width="194" height="52" fill="none" xmlns="http://www.w3.org/2000/svg"><path d="M28.273 48h-6.466V21.94H9.28V48H2.836V16.719h25.437V48zm28.828-31.281h6.467V48h-6.467V27.225L44.576 48H38.13V16.719h6.446v20.818L57.1 16.72zM80 36.979V48h-6.445V16.719h12.203c2.349 0 4.411.43 6.188 1.289 1.79.86 3.165 2.084 4.125 3.674.96 1.575 1.439 3.373 1.439 5.392 0 3.065-1.053 5.486-3.158 7.262-2.091 1.762-4.992 2.642-8.701 2.642H80zm0-5.221h5.758c1.704 0 3-.401 3.889-1.203.902-.802 1.353-1.948 1.353-3.438 0-1.532-.451-2.771-1.353-3.717-.903-.945-2.149-1.432-3.739-1.46H80v9.818zM115.147 26h-.6v-6.597h-4.024V26h-.6v-7.11h5.224V26z" fill="#305BAF"/><path d="M122.09 23.412c0 .824-.182 1.478-.547 1.963-.365.482-.853.723-1.465.723-.723 0-1.276-.254-1.66-.762v2.695h-.581v-7.314h.542l.029.747c.381-.563.933-.845 1.655-.845.632 0 1.127.24 1.485.718.361.478.542 1.143.542 1.992v.083zm-.586-.102c0-.674-.138-1.206-.415-1.597-.277-.39-.663-.586-1.157-.586-.358 0-.666.086-.923.259a1.631 1.631 0 00-.591.752v2.534c.14.303.34.534.601.693.26.16.568.24.922.24.492 0 .874-.196 1.148-.586.277-.394.415-.964.415-1.71zm2.562-.03c0-.508.098-.965.293-1.372a2.26 2.26 0 01.835-.947 2.25 2.25 0 011.226-.342c.703 0 1.273.247 1.709.742.436.492.654 1.145.654 1.958v.122c0 .512-.099.972-.298 1.382a2.19 2.19 0 01-.83.943 2.28 2.28 0 01-1.225.332c-.7 0-1.27-.246-1.709-.738-.436-.494-.655-1.149-.655-1.962v-.118zm.586.161c0 .632.163 1.151.489 1.558a1.58 1.58 0 001.289.606c.527 0 .953-.202 1.279-.606.329-.407.493-.942.493-1.606v-.113a2.7 2.7 0 00-.224-1.108 1.791 1.791 0 00-.63-.777 1.603 1.603 0 00-.928-.278c-.521 0-.946.205-1.274.615-.329.407-.494.941-.494 1.602v.107zM131.058 26v-5.283h1.938c.671 0 1.185.12 1.543.361.358.238.537.588.537 1.05 0 .264-.08.5-.239.708-.16.205-.392.355-.698.45.345.064.621.212.83.444.211.23.317.5.317.805 0 .466-.172.827-.517 1.084-.342.254-.827.381-1.456.381h-2.255zm.581-2.432v1.944h1.694c.439 0 .778-.085 1.016-.254.237-.17.356-.414.356-.733a.82.82 0 00-.356-.698c-.238-.172-.577-.259-1.016-.259h-1.694zm0-.488h1.479c.918-.013 1.377-.325 1.377-.937 0-.323-.127-.557-.381-.704-.25-.15-.623-.224-1.118-.224h-1.357v1.865zm9.286 2.92c-.059-.166-.096-.412-.113-.737a2.054 2.054 0 01-.786.62 2.404 2.404 0 01-1.005.215c-.508 0-.92-.142-1.236-.425a1.39 1.39 0 01-.469-1.074c0-.515.214-.922.64-1.221.43-.3 1.027-.45 1.792-.45h1.06v-.6c0-.377-.118-.674-.352-.889-.231-.218-.57-.327-1.016-.327-.406 0-.743.105-1.01.313-.267.208-.401.459-.401.752l-.586-.005c0-.42.196-.783.586-1.089.391-.31.871-.464 1.441-.464.589 0 1.053.148 1.391.445.342.292.518.703.528 1.23v2.5c0 .511.053.893.161 1.147V26h-.625zm-1.836-.42c.39 0 .739-.094 1.045-.283.309-.189.534-.441.674-.757v-1.162h-1.045c-.583.006-1.039.114-1.367.322-.329.205-.494.489-.494.85 0 .296.109.542.327.737.222.195.508.293.86.293zm8.334-4.863h.586V26h-.586v-4.34L144.571 26h-.581v-5.283h.581v4.346l2.852-4.346zm-.029-1.904c0 .374-.129.677-.386.908-.254.23-.596.346-1.026.346-.423 0-.765-.114-1.025-.341-.257-.232-.386-.536-.386-.913h.498c0 .27.08.476.24.62.162.143.387.215.673.215.287 0 .51-.075.669-.225.163-.15.245-.353.245-.61h.498zm3.06 6.694l.259-.337c.41-.557.646-1.37.708-2.442l.093-2.011h3.12v4.79h.547v2.046h-.581V26h-3.97v1.553h-.562l.005-2.046h.381zm.674 0h2.92v-4.243h-1.978l-.063 1.372c-.059 1.26-.352 2.216-.879 2.87zm8.226.59c-.449 0-.856-.11-1.22-.331a2.269 2.269 0 01-.845-.923 2.898 2.898 0 01-.303-1.333v-.21c0-.508.098-.965.293-1.372.199-.407.474-.726.825-.957a2.022 2.022 0 011.143-.352c.641 0 1.149.22 1.524.66.377.436.566 1.033.566 1.791v.328h-3.77v.112c0 .599.171 1.098.513 1.499a1.65 1.65 0 001.299.596c.312 0 .587-.058.825-.171.241-.114.459-.297.654-.547l.367.278c-.43.622-1.053.933-1.871.933zm-.107-4.98c-.439 0-.81.161-1.113.484-.3.322-.482.755-.547 1.298h3.169v-.063c-.016-.508-.161-.921-.435-1.24-.273-.32-.631-.479-1.074-.479zm8.476 2.295c0 .824-.183 1.478-.547 1.963-.365.482-.853.723-1.465.723-.723 0-1.276-.254-1.66-.762v2.695h-.581v-7.314h.542l.029.747c.381-.563.933-.845 1.655-.845.632 0 1.127.24 1.485.718.361.478.542 1.143.542 1.992v.083zm-.586-.102c0-.674-.139-1.206-.415-1.597-.277-.39-.663-.586-1.158-.586-.358 0-.665.086-.922.259a1.625 1.625 0 00-.591.752v2.534c.14.303.34.534.6.693.261.16.568.24.923.24.492 0 .874-.196 1.148-.586.276-.394.415-.964.415-1.71z" fill="#000"/><path d="M114.571 29.89h.601V37h-.601v-6.084L110.523 37h-.605v-7.11h.605v6.08l4.048-6.08z" fill="#305BAF"/><path d="M121.919 37h-.586v-2.422h-2.847V37h-.586v-5.283h.586v2.368h2.847v-2.368h.586V37zm6.361-4.785h-1.924V37h-.585v-4.785h-1.851v-.498h4.36v.498zm3.617 4.883c-.449 0-.856-.111-1.22-.332a2.269 2.269 0 01-.845-.923 2.898 2.898 0 01-.303-1.333v-.21c0-.508.098-.965.293-1.372.199-.407.474-.726.825-.957a2.022 2.022 0 011.143-.352c.641 0 1.149.22 1.523.66.378.435.567 1.033.567 1.791v.328h-3.77v.112c0 .599.171 1.098.513 1.499a1.65 1.65 0 001.299.596c.312 0 .587-.057.825-.171.241-.114.459-.297.654-.547l.367.278c-.43.622-1.053.933-1.871.933zm-.107-4.98c-.439 0-.811.16-1.113.483-.3.322-.482.755-.547 1.298h3.169v-.063c-.016-.508-.161-.921-.435-1.24-.273-.32-.631-.479-1.074-.479zm8.476 2.294c0 .824-.183 1.478-.547 1.963-.365.482-.853.723-1.465.723-.723 0-1.276-.254-1.66-.762v2.695h-.581v-7.314h.542l.029.747c.381-.563.933-.845 1.655-.845.632 0 1.127.24 1.485.718.361.478.542 1.142.542 1.992v.083zm-.586-.102c0-.674-.139-1.207-.415-1.597-.277-.39-.663-.586-1.158-.586-.358 0-.665.086-.922.259a1.619 1.619 0 00-.591.752v2.534c.14.303.34.534.6.693.261.16.568.24.923.24.492 0 .874-.196 1.148-.586.276-.394.415-.964.415-1.71zm6.219 2.69c-.058-.166-.096-.412-.112-.737a2.054 2.054 0 01-.786.62 2.408 2.408 0 01-1.006.215c-.508 0-.919-.142-1.235-.425a1.386 1.386 0 01-.469-1.074c0-.515.213-.922.64-1.221.429-.3 1.027-.45 1.792-.45h1.059v-.6c0-.378-.117-.674-.351-.889-.231-.218-.57-.327-1.016-.327-.407 0-.744.105-1.011.313-.267.208-.4.459-.4.752l-.586-.005c0-.42.195-.783.586-1.089.391-.31.871-.464 1.44-.464.59 0 1.053.148 1.392.444.342.293.518.704.527 1.23v2.5c0 .512.054.895.161 1.148V37h-.625zm-1.836-.42c.391 0 .739-.094 1.045-.283a1.66 1.66 0 00.674-.757v-1.162h-1.045c-.582.006-1.038.114-1.367.322-.329.205-.493.488-.493.85 0 .296.109.542.327.737.221.195.508.293.859.293zm6.298-2.002h-.81V37h-.591v-5.283h.591v2.343h.801l1.938-2.343h.737l-2.168 2.563 2.408 2.72h-.772l-2.134-2.422zm8.544-2.363h-1.924V37h-.585v-4.785h-1.851v-.498h4.36v.498zm5.434-.498h.586V37h-.586v-4.34L161.487 37h-.581v-5.283h.581v4.346l2.852-4.346zM167.556 37v-5.283h1.938c.671 0 1.185.12 1.543.361.358.238.537.588.537 1.05 0 .264-.08.5-.239.708-.16.205-.392.355-.698.45.345.064.621.212.83.444.211.23.317.5.317.805 0 .466-.172.827-.517 1.084-.342.254-.827.381-1.455.381h-2.256zm.581-2.432v1.944h1.694c.44 0 .778-.085 1.016-.254.237-.17.356-.414.356-.733a.82.82 0 00-.356-.698c-.238-.172-.576-.259-1.016-.259h-1.694zm0-.488h1.479c.918-.013 1.377-.325 1.377-.937 0-.323-.127-.557-.381-.703-.25-.15-.623-.225-1.118-.225h-1.357v1.865zM178.146 37h-.586v-2.422h-2.847V37h-.586v-5.283h.586v2.368h2.847v-2.368h.586V37zm3.211-3.364h1.524c.39 0 .732.071 1.025.215a1.5 1.5 0 01.669.586c.153.25.23.541.23.873 0 .512-.176.922-.528 1.231-.348.306-.82.459-1.416.459h-2.085v-5.283h.581v1.919zm0 .498v2.373h1.514c.42 0 .749-.106.986-.317.241-.212.362-.502.362-.87 0-.351-.117-.635-.352-.85-.231-.217-.548-.33-.952-.336h-1.558zm5.24 2.866h-.586v-5.283h.586V37zm4.286-3.14l1.426-2.143h.693l-1.792 2.593 1.87 2.69h-.688l-1.504-2.236L189.384 37h-.689l1.866-2.69-1.792-2.593h.688l1.426 2.143z" fill="#000"/><path d="M110.499 45.105V48h-.601v-7.11h2.422c.739 0 1.322.19 1.748.567.43.378.645.897.645 1.558 0 .667-.207 1.183-.62 1.547-.41.362-1.006.543-1.787.543h-1.807zm0-.508h1.821c.583 0 1.027-.139 1.333-.415.306-.277.459-.663.459-1.158 0-.491-.153-.882-.459-1.172-.302-.292-.734-.442-1.294-.449h-1.86v3.194z" fill="#305BAF"/><path d="M118.97 48.098c-.449 0-.856-.111-1.221-.332a2.275 2.275 0 01-.845-.923 2.897 2.897 0 01-.302-1.333v-.21c0-.508.097-.965.293-1.372a2.34 2.34 0 01.825-.957 2.017 2.017 0 011.142-.352c.642 0 1.149.22 1.524.66.377.435.566 1.033.566 1.791v.328h-3.769v.112c0 .599.171 1.098.512 1.499a1.65 1.65 0 001.299.596c.313 0 .588-.057.825-.171.241-.114.459-.297.655-.547l.366.278c-.43.622-1.053.933-1.87.933zm-.108-4.98c-.439 0-.81.16-1.113.483-.299.322-.482.755-.547 1.298h3.169v-.063c-.016-.508-.161-.921-.434-1.24-.274-.32-.632-.479-1.075-.479zm4.853-.401v4.79h2.348v-4.79h.586v4.79h2.33v-4.79h.585V48h-6.435v-5.283h.586zm10.36 5.38c-.449 0-.856-.11-1.221-.331a2.273 2.273 0 01-.844-.923 2.898 2.898 0 01-.303-1.333v-.21c0-.508.098-.965.293-1.372.199-.407.474-.726.825-.957a2.022 2.022 0 011.143-.352c.641 0 1.149.22 1.523.66.378.435.567 1.033.567 1.791v.328h-3.77v.112c0 .599.171 1.098.513 1.499a1.65 1.65 0 001.299.596c.312 0 .587-.057.825-.171.241-.114.459-.297.654-.547l.366.278c-.429.622-1.053.933-1.87.933zm-.107-4.98c-.44 0-.811.161-1.114.484-.299.322-.481.755-.546 1.298h3.169v-.063c-.017-.508-.162-.921-.435-1.24-.273-.32-.632-.479-1.074-.479zM142.253 48h-.586v-2.422h-2.847V48h-.586v-5.283h.586v2.368h2.847v-2.368h.586V48zm6.039-5.283h.586V48h-.586v-4.34L145.44 48h-.581v-5.283h.581v4.346l2.852-4.346zm6.625 0h.586V48h-.586v-4.34L152.065 48h-.581v-5.283h.581v4.346l2.852-4.346zm-.029-1.904c0 .374-.129.677-.386.908-.254.23-.596.346-1.025.346-.424 0-.765-.114-1.026-.341-.257-.231-.386-.536-.386-.913h.498c0 .27.08.476.24.62.162.143.387.215.674.215.286 0 .509-.075.669-.225.162-.15.244-.353.244-.61h.498z" fill="#000"/></svg>