<svg width="185" height="52" fill="none" xmlns="http://www.w3.org/2000/svg"><path d="M28.273 48h-6.466V21.94H9.28V48H2.836V16.719h25.437V48zm28.828-31.281h6.467V48h-6.467V27.225L44.576 48H38.13V16.719h6.446v20.818L57.1 16.72zM80 36.979V48h-6.445V16.719h12.203c2.349 0 4.411.43 6.188 1.289 1.79.86 3.165 2.084 4.125 3.674.96 1.575 1.439 3.373 1.439 5.392 0 3.065-1.053 5.486-3.158 7.262-2.091 1.762-4.992 2.642-8.701 2.642H80zm0-5.221h5.758c1.704 0 3-.401 3.889-1.203.902-.802 1.353-1.948 1.353-3.438 0-1.532-.451-2.771-1.353-3.717-.903-.945-2.149-1.432-3.739-1.46H80v9.818zM114.533 25h-.541v-5.937h-3.621V25h-.54v-6.398h4.702V25z" fill="#305BAF"/><path d="M120.781 22.67c0 .742-.164 1.331-.492 1.767-.328.434-.768.65-1.319.65-.65 0-1.148-.228-1.494-.685v2.426h-.523v-6.583h.488l.026.672c.343-.506.84-.76 1.49-.76.568 0 1.014.216 1.336.646.325.43.488 1.028.488 1.793v.075zm-.527-.091c0-.607-.125-1.086-.374-1.437-.249-.352-.596-.528-1.042-.528-.322 0-.599.078-.83.233a1.46 1.46 0 00-.532.677v2.28c.126.273.306.481.541.625.234.143.511.215.83.215.443 0 .787-.176 1.033-.527.249-.355.374-.867.374-1.538zm2.306-.027c0-.457.088-.868.263-1.235.179-.366.43-.65.752-.852a2.025 2.025 0 011.103-.308c.633 0 1.145.223 1.538.668.393.443.589 1.03.589 1.762v.11c0 .46-.089.875-.268 1.244a1.977 1.977 0 01-.747.848c-.323.2-.69.299-1.103.299-.63 0-1.143-.221-1.538-.664-.393-.445-.589-1.034-.589-1.766v-.106zm.527.145c0 .569.147 1.036.44 1.402.295.363.682.545 1.16.545a1.41 1.41 0 001.151-.545c.296-.366.444-.848.444-1.446v-.1c0-.364-.067-.697-.202-.998a1.612 1.612 0 00-.567-.699 1.44 1.44 0 00-.835-.25c-.469 0-.851.184-1.147.553-.296.366-.444.847-.444 1.442v.096zM128.852 25v-4.755h1.744c.604 0 1.067.108 1.389.325.322.214.484.53.484.945 0 .237-.072.45-.216.637-.143.185-.353.32-.628.405.31.058.559.192.747.4.19.208.286.45.286.725 0 .419-.156.744-.466.975-.308.229-.744.343-1.31.343h-2.03zm.523-2.189v1.75h1.525c.395 0 .7-.077.914-.229.214-.152.321-.372.321-.66a.737.737 0 00-.321-.628c-.214-.155-.519-.233-.914-.233h-1.525zm0-.439h1.331c.827-.012 1.24-.293 1.24-.844 0-.29-.115-.5-.343-.633-.226-.134-.561-.202-1.007-.202h-1.221v1.68zM137.732 25c-.052-.15-.086-.37-.101-.664a1.85 1.85 0 01-.707.559 2.167 2.167 0 01-.906.193c-.457 0-.827-.128-1.111-.382a1.246 1.246 0 01-.422-.967c0-.463.192-.83.575-1.099.387-.27.925-.404 1.613-.404h.954v-.54c0-.34-.106-.607-.317-.8-.208-.197-.512-.295-.914-.295-.366 0-.669.094-.909.281-.241.188-.361.413-.361.677l-.527-.004c0-.378.176-.705.527-.98.352-.279.784-.418 1.297-.418.53 0 .948.134 1.252.4.308.264.466.633.475 1.108v2.25c0 .46.048.804.145 1.032V25h-.563zm-1.652-.378c.352 0 .665-.085.94-.255.279-.17.481-.397.607-.681V22.64h-.941c-.524.006-.934.103-1.23.29-.296.185-.444.44-.444.765a.85.85 0 00.295.663c.199.176.457.264.773.264zm7.501-4.377h.527V25h-.527v-3.907L141.014 25h-.523v-4.755h.523v3.911l2.567-3.91zm-.027-1.714c0 .337-.116.61-.347.818-.228.208-.536.312-.923.312-.381 0-.688-.103-.923-.308-.231-.208-.347-.482-.347-.822h.448c0 .243.072.43.216.558.146.13.348.194.606.194s.459-.068.602-.202c.147-.135.22-.318.22-.55h.448zm2.755 6.025l.233-.303c.369-.501.581-1.233.637-2.197l.083-1.81h2.808v4.31h.493v1.841h-.523V25h-3.573v1.398h-.505l.004-1.842h.343zm.606 0h2.628v-3.819h-1.78l-.057 1.235c-.053 1.134-.316 1.995-.791 2.584zm7.404.532c-.404 0-.77-.1-1.099-.299a2.048 2.048 0 01-.76-.83 2.618 2.618 0 01-.272-1.2v-.19c0-.456.088-.868.263-1.234.179-.366.427-.653.743-.861a1.816 1.816 0 011.028-.317c.578 0 1.035.198 1.371.593.34.393.51.93.51 1.613v.295h-3.392v.1c0 .54.153.99.461 1.35.311.357.7.536 1.169.536a1.7 1.7 0 00.743-.154c.216-.102.413-.266.589-.492l.329.25c-.387.56-.948.84-1.683.84zm-.097-4.483a1.32 1.32 0 00-1.002.436c-.269.29-.433.68-.492 1.168h2.852v-.057c-.014-.457-.145-.829-.391-1.116-.246-.287-.568-.43-.967-.43zm7.628 2.066c0 .741-.164 1.33-.492 1.767a1.57 1.57 0 01-1.318.65c-.651 0-1.149-.229-1.494-.686v2.426h-.523v-6.583h.488l.026.672c.343-.506.839-.76 1.49-.76.568 0 1.013.216 1.336.646.325.43.487 1.028.487 1.793v.075zm-.527-.092c0-.607-.124-1.086-.373-1.437-.25-.352-.597-.528-1.042-.528-.322 0-.599.078-.831.233a1.465 1.465 0 00-.531.677v2.28a1.4 1.4 0 00.54.625c.235.143.511.215.831.215.442 0 .786-.176 1.033-.527.249-.355.373-.867.373-1.538z" fill="#000"/><path d="M114.014 29.602h.541V36h-.541v-5.476L110.371 36h-.545v-6.398h.545v5.47l3.643-5.47z" fill="#305BAF"/><path d="M120.627 36h-.527v-2.18h-2.562V36h-.528v-4.755h.528v2.131h2.562v-2.13h.527V36zm5.725-4.307h-1.731V36h-.528v-4.307h-1.665v-.448h3.924v.448zm3.256 4.395c-.405 0-.771-.1-1.099-.299a2.042 2.042 0 01-.76-.83 2.605 2.605 0 01-.273-1.2v-.19c0-.456.088-.868.264-1.234.179-.366.426-.653.743-.861a1.816 1.816 0 011.028-.317c.577 0 1.034.198 1.371.593.34.393.51.93.51 1.613v.295h-3.393v.1c0 .54.154.99.462 1.35.31.357.7.536 1.169.536.281 0 .528-.051.742-.154.217-.102.413-.266.589-.492l.33.25c-.387.56-.948.84-1.683.84zm-.097-4.483a1.32 1.32 0 00-1.002.436c-.269.29-.434.68-.492 1.169h2.852v-.058c-.015-.457-.145-.829-.391-1.116-.246-.287-.569-.43-.967-.43zm7.628 2.066c0 .741-.164 1.33-.492 1.767a1.57 1.57 0 01-1.318.65c-.651 0-1.149-.229-1.495-.686v2.426h-.523v-6.583h.488l.027.672c.342-.506.839-.76 1.489-.76.569 0 1.014.216 1.336.646.325.43.488 1.028.488 1.793v.075zm-.527-.092c0-.607-.125-1.086-.374-1.437-.249-.352-.596-.528-1.041-.528-.323 0-.599.078-.831.233a1.467 1.467 0 00-.532.677v2.28a1.4 1.4 0 00.541.625c.234.143.511.215.83.215.443 0 .787-.176 1.033-.527.249-.355.374-.867.374-1.538zM142.209 36c-.052-.15-.086-.37-.101-.664a1.85 1.85 0 01-.707.559 2.165 2.165 0 01-.905.193c-.457 0-.828-.128-1.112-.382a1.25 1.25 0 01-.422-.967c0-.463.192-.83.576-1.099.386-.27.924-.404 1.612-.404h.954v-.54c0-.34-.105-.607-.316-.8-.208-.197-.513-.295-.914-.295-.367 0-.67.094-.91.281-.24.188-.36.413-.36.677l-.528-.004c0-.378.176-.705.528-.98.351-.279.783-.418 1.296-.418.53 0 .948.134 1.252.4.308.264.466.633.475 1.108v2.25c0 .46.048.804.145 1.032V36h-.563zm-1.652-.378c.352 0 .665-.085.941-.255.278-.17.48-.397.606-.681V33.64h-.94c-.525.006-.935.103-1.231.29-.296.185-.444.44-.444.765a.85.85 0 00.295.663c.199.176.457.264.773.264zm5.668-1.802h-.729V36h-.532v-4.755h.532v2.11h.72l1.745-2.11h.664l-1.952 2.307L148.84 36h-.694l-1.921-2.18zm7.69-2.127h-1.732V36h-.527v-4.307h-1.666v-.448h3.925v.448zm4.89-.448h.527V36h-.527v-3.907L156.239 36h-.523v-4.755h.523v3.911l2.566-3.91zM161.7 36v-4.755h1.745c.603 0 1.066.108 1.388.325.323.214.484.53.484.945 0 .237-.072.45-.216.637-.143.185-.353.32-.628.405.311.058.56.191.747.4.191.208.286.45.286.725 0 .419-.156.744-.466.975-.308.229-.744.343-1.31.343h-2.03zm.523-2.188v1.748h1.525c.395 0 .7-.076.914-.228.214-.152.321-.372.321-.66a.737.737 0 00-.321-.628c-.214-.155-.519-.232-.914-.232h-1.525zm0-.44h1.332c.826-.012 1.239-.293 1.239-.844 0-.29-.114-.5-.343-.633-.226-.134-.561-.202-1.006-.202h-1.222v1.68zM171.231 36h-.527v-2.18h-2.562V36h-.528v-4.755h.528v2.131h2.562v-2.13h.527V36zm2.891-3.028h1.371c.351 0 .659.065.923.194.266.126.467.301.602.527.137.226.206.488.206.787 0 .46-.158.829-.474 1.107-.314.275-.739.413-1.275.413h-1.876v-4.755h.523v1.727zm0 .448v2.136h1.362c.378 0 .674-.095.888-.285.216-.19.325-.452.325-.783 0-.316-.106-.571-.317-.764-.208-.197-.493-.298-.856-.304h-1.402zm4.715 2.58h-.527v-4.755h.527V36zm3.858-2.826l1.283-1.929h.624l-1.613 2.334L184.672 36h-.62l-1.353-2.013L181.345 36h-.619l1.678-2.421-1.612-2.334h.619l1.284 1.93z" fill="#000"/><path d="M110.349 44.394V47h-.54v-6.398h2.179c.665 0 1.19.17 1.574.51.386.34.58.806.58 1.401 0 .6-.186 1.065-.559 1.393-.369.325-.905.488-1.608.488h-1.626zm0-.457h1.639c.525 0 .925-.124 1.2-.373.275-.25.413-.597.413-1.042 0-.442-.138-.794-.413-1.055-.272-.263-.661-.398-1.165-.404h-1.674v2.874z" fill="#305BAF"/><path d="M117.973 47.088c-.405 0-.771-.1-1.099-.299a2.048 2.048 0 01-.76-.83 2.605 2.605 0 01-.273-1.2v-.19c0-.456.088-.868.264-1.234.179-.366.426-.653.743-.861a1.816 1.816 0 011.028-.317c.577 0 1.034.198 1.371.594.34.392.51.93.51 1.612v.295h-3.393v.1c0 .54.154.99.462 1.35.31.357.7.536 1.169.536.281 0 .529-.051.742-.154.217-.102.413-.266.589-.492l.33.25c-.387.56-.948.84-1.683.84zm-.097-4.483c-.395 0-.729.146-1.002.436-.269.29-.433.68-.492 1.169h2.852v-.058c-.015-.457-.145-.829-.391-1.116-.246-.287-.568-.43-.967-.43zm4.367-.36v4.311h2.114v-4.31h.527v4.31h2.097v-4.31h.527V47h-5.792v-4.755h.527zm9.325 4.843c-.405 0-.771-.1-1.099-.299a2.042 2.042 0 01-.76-.83 2.605 2.605 0 01-.273-1.2v-.19c0-.456.088-.868.264-1.234.179-.366.426-.653.743-.861a1.816 1.816 0 011.028-.317c.577 0 1.034.198 1.371.594.34.392.51.93.51 1.612v.295h-3.393v.1c0 .54.154.99.462 1.35.31.357.7.536 1.169.536.281 0 .528-.051.742-.154.217-.102.413-.266.589-.492l.33.25c-.387.56-.948.84-1.683.84zm-.097-4.483c-.396 0-.729.146-1.002.436-.269.29-.434.68-.492 1.169h2.852v-.058c-.015-.457-.145-.829-.391-1.116-.246-.287-.569-.43-.967-.43zM138.928 47h-.528v-2.18h-2.562V47h-.527v-4.755h.527v2.132h2.562v-2.132h.528V47zm5.435-4.755h.527V47h-.527v-3.907L141.796 47h-.523v-4.755h.523v3.911l2.567-3.91zm5.962 0h.528V47h-.528v-3.907L147.759 47h-.523v-4.755h.523v3.911l2.566-3.91zm-.026-1.714c0 .337-.116.61-.347.818-.229.208-.536.312-.923.312-.381 0-.689-.103-.923-.308-.231-.208-.347-.482-.347-.822h.448c0 .243.072.43.215.558.147.13.349.194.607.194s.458-.068.602-.202c.146-.135.22-.318.22-.55h.448z" fill="#000"/></svg>